<svg width="60" height="60" viewBox="0 0 60 60" fill="none" xmlns="http://www.w3.org/2000/svg">
<g clip-path="url(#clip0_25_27)">
<path d="M36.7688 43.125H23.2313C22.0377 43.1151 20.8965 42.6334 20.0569 41.785C19.2173 40.9366 18.7475 39.7905 18.75 38.5969V6.40312C18.7475 5.20952 19.2173 4.06341 20.0569 3.21502C20.8965 2.36664 22.0377 1.8849 23.2313 1.875H36.7688C37.9697 1.875 39.1214 2.35207 39.9706 3.20126C40.8198 4.05045 41.2969 5.20219 41.2969 6.40312V38.5969C41.2981 39.1919 41.1818 39.7812 40.9547 40.3312C40.7276 40.8811 40.3941 41.3808 39.9734 41.8015C39.5527 42.2222 39.053 42.5557 38.5031 42.7828C37.9531 43.01 37.3638 43.1262 36.7688 43.125Z" stroke="#010101" stroke-width="4" stroke-miterlimit="10"/>
<path d="M11.25 30V41.25C11.25 43.7364 12.2377 46.121 13.9959 47.8791C15.754 49.6373 18.1386 50.625 20.625 50.625H39.375C41.8614 50.625 44.246 49.6373 46.0041 47.8791C47.7623 46.121 48.75 43.7364 48.75 41.25V30" stroke="#010101" stroke-width="4" stroke-miterlimit="10"/>
<path d="M30 50.625V58.125" stroke="#010101" stroke-width="4" stroke-miterlimit="10"/>
<path d="M20.7563 58.125H39.2438" stroke="#010101" stroke-width="4" stroke-miterlimit="10"/>
</g>
<defs>
<clipPath id="clip0_25_27">
<rect width="60" height="60" fill="white"/>
</clipPath>
</defs>
</svg>
