<svg width="60" height="60" viewBox="0 0 60 60" fill="none" xmlns="http://www.w3.org/2000/svg">
<path d="M30 3.75C17.595 3.75 7.5 13.845 7.5 26.25C7.5 36.0413 13.8075 44.37 22.56 47.4525V52.5H11.25V56.25H48.75V52.5H37.5V47.43C46.2225 44.3325 52.5 36.0187 52.5 26.25C52.5 13.845 42.405 3.75 30 3.75ZM30 7.5C40.3763 7.5 48.75 15.8737 48.75 26.25C48.75 36.6263 40.3763 45 30 45C19.6237 45 11.25 36.6263 11.25 26.25C11.25 15.8737 19.6237 7.5 30 7.5ZM30 15C23.8125 15 18.75 20.0625 18.75 26.25C18.75 32.4412 23.8125 37.5 30 37.5C36.1875 37.5 41.25 32.4412 41.25 26.25C41.25 20.0625 36.1875 15 30 15ZM30 18.75C34.1625 18.75 37.5 22.0875 37.5 26.25C37.5 30.4125 34.1625 33.75 30 33.75C25.8375 33.75 22.5 30.4125 22.5 26.25C22.5 22.0875 25.8375 18.75 30 18.75ZM33.75 48.405V52.5H26.31V48.42C27.51 48.6187 28.74 48.75 30 48.75C31.2787 48.75 32.5275 48.6113 33.75 48.405Z" fill="black"/>
</svg>
